<svg width="102" height="90" viewBox="0 0 102 90" fill="none" xmlns="http://www.w3.org/2000/svg">
<g id="Ebene_1" clip-path="url(#clip0_3147_3466)">
<path id="Vector" d="M99.3542 84.6018L95.6864 74.1162H92.7422V90.0006H94.8067V77.4364L99.2868 90.0006H101.447V74.1162H99.3542V84.6018Z" fill="white"/>
<g id="Group">
<path id="Vector_2" d="M7.35828 0V45.2022H0.902344V0H7.35828Z" fill="#E51433"/>
<path id="Vector_3" d="M22.1239 16.6045V45.2022H15.668V16.6045H22.1239Z" fill="#E51433"/>
<path id="Vector_4" d="M39.6548 16.6045V45.2022H33.1953V16.6045H39.6548Z" fill="#E51433"/>
<path id="Vector_5" d="M54.4052 0V45.2022H47.9492V0H54.4052Z" fill="#E51433"/>
<path id="Vector_6" d="M71.9325 16.6045V45.2022H65.4766V16.6045H71.9325Z" fill="#E51433"/>
<path id="Vector_7" d="M86.6903 16.6045V45.2022H80.2344V16.6045H86.6903Z" fill="#E51433"/>
<path id="Vector_8" d="M101.456 16.6045V45.2022H95V16.6045H101.456Z" fill="#E51433"/>
</g>
<g id="Group_2">
<path id="Vector_9" d="M2.9952 62.0935H7.11352V69.4611H9.20283V53.5767H7.11352V60.2596H2.9952V53.5767H0.902344V69.4611H2.9952V62.0935Z" fill="white"/>
<path id="Vector_10" d="M15.767 53.3633C12.727 53.3633 11.1875 56.1088 11.1875 61.5183C11.1875 66.9278 12.727 69.6734 15.767 69.6734C18.8069 69.6734 20.3464 66.9278 20.3464 61.5183C20.3464 56.1088 18.8069 53.3633 15.767 53.3633ZM15.767 67.8395C14.6992 67.8395 13.2804 67.1832 13.2804 61.5183C13.2804 55.8534 14.6992 55.1972 15.767 55.1972C16.8347 55.1972 18.2536 55.8534 18.2536 61.5183C18.2536 67.1832 16.8347 67.8395 15.767 67.8395Z" fill="white"/>
<path id="Vector_11" d="M26.5765 69.6734C29.322 69.6734 30.9183 67.6479 30.9644 64.1114V63.8985H28.8751V64.1043C28.8325 66.6866 28.1266 67.8395 26.5765 67.8395C24.7107 67.8395 23.9799 66.0659 23.9799 61.5183C23.9799 56.9708 24.7071 55.1972 26.5765 55.1972C27.8003 55.1972 28.4636 56.2401 28.6587 58.4748L28.6765 58.6664H30.7658L30.748 58.4393C30.4891 55.1192 29.0489 53.3633 26.5765 53.3633C23.423 53.3633 21.8906 56.0308 21.8906 61.5183C21.8906 67.0059 23.423 69.6734 26.5765 69.6734Z" fill="white"/>
<path id="Vector_12" d="M41.3278 69.4611V53.5767H39.2385V60.2596H35.1167V53.5767H33.0273V69.4611H35.1167V62.0935H39.2385V69.4611H41.3278Z" fill="white"/>
<path id="Vector_13" d="M47.7899 60.2662C46.3923 59.3191 45.1863 58.5032 45.1863 57.0205C45.1863 55.9279 45.9525 55.1972 47.0947 55.1972C48.3929 55.1972 49.1237 56.0698 49.262 57.7867L49.2762 57.9818H51.2343L51.2236 57.7618C51.0924 55.0092 49.5883 53.3633 47.2011 53.3633C44.8138 53.3633 43.2637 54.8957 43.2637 57.173C43.2637 59.6135 45.0231 60.8444 46.7257 62.0327C48.1411 63.0224 49.4748 63.9553 49.4748 65.5019C49.4748 66.9669 48.698 67.8395 47.3926 67.8395C45.9276 67.8395 45.0976 66.864 45.055 65.0904V64.8846H43.0898V65.0975C43.1395 67.8785 44.7606 69.6734 47.2224 69.6734C49.8757 69.6734 51.3939 68.1587 51.3939 65.5231C51.3939 62.7067 49.4784 61.4084 47.7864 60.2662H47.7899Z" fill="white"/>
<path id="Vector_14" d="M59.7934 64.1077C59.7544 66.69 59.0485 67.8429 57.4984 67.8429C55.6325 67.8429 54.9018 66.0693 54.9018 61.5218C54.9018 56.9742 55.629 55.2006 57.4984 55.2006C58.7222 55.2006 59.3855 56.2435 59.5806 58.4782L59.5983 58.6698H61.6876L61.6699 58.4428C61.411 55.1226 59.9672 53.3667 57.4984 53.3667C54.3449 53.3667 52.8125 56.0342 52.8125 61.5218C52.8125 67.0093 54.3449 69.6768 57.4984 69.6768C60.2439 69.6768 61.8402 67.6513 61.8863 64.1148V63.9019H59.797V64.1077H59.7934Z" fill="white"/>
<path id="Vector_15" d="M66.0346 62.093H70.1565V69.4606H72.2458V53.5762H70.1565V60.2591H66.0346V53.5762H63.9453V69.4606H66.0346V62.093Z" fill="white"/>
<path id="Vector_16" d="M82.9248 65.1825V53.5796H80.8319V65.14C80.8319 67.0094 80.197 67.8429 78.771 67.8429C77.345 67.8429 76.71 67.0094 76.71 65.14V53.5796H74.6172V65.1825C74.6172 68.0806 76.0928 69.6769 78.7674 69.6769C81.442 69.6769 82.9177 68.0806 82.9177 65.1825H82.9248Z" fill="white"/>
<path id="Vector_17" d="M92.4843 67.6267H87.4721V53.5762H85.3828V69.4606H92.4843V67.6267Z" fill="white"/>
<path id="Vector_18" d="M95.7999 67.6267V62.093H99.7834V60.2591H95.7999V55.4101H101.195V53.5762H93.707V69.4606H101.454V67.6267H95.7999Z" fill="white"/>
<path id="Vector_19" d="M3.98133 74.1143H0.902344V89.9987H3.98133C7.74138 89.9987 9.41567 87.5476 9.41567 82.0565C9.41567 76.5654 7.73783 74.1143 3.98133 74.1143ZM2.9952 75.9517H3.68336C5.9926 75.9517 7.32635 76.952 7.32635 82.06C7.32635 87.168 5.98905 88.1683 3.68336 88.1683H2.9952V75.9553V75.9517Z" fill="white"/>
<path id="Vector_20" d="M14.6593 82.6311H18.6428V80.7972H14.6593V75.9517H20.0581V74.1143H12.5664V89.9987H20.3135V88.1648H14.6593V82.6311Z" fill="white"/>
<path id="Vector_21" d="M31.9243 78.3319C31.9243 75.7708 30.1791 74.1143 27.4726 74.1143H23.5352V89.9987H25.628V82.7517L27.4513 82.6808L29.8847 89.8568L29.9343 89.9987H32.1336L29.4909 82.2445C31.0588 81.6131 31.9208 80.2261 31.9208 78.3284L31.9243 78.3319ZM25.628 75.9517H26.8731C29.005 75.9517 29.8315 76.6434 29.8315 78.417C29.8315 80.1906 29.0014 80.8823 26.8731 80.8823H25.628V75.9482V75.9517Z" fill="white"/>
<path id="Vector_22" d="M44.6266 83.0355L42.0691 74.1143H39.0469V89.9987H41.0049V77.3032L43.8817 86.8027H45.3113L48.1881 77.3032V89.9987H50.1461V74.1143H47.1203L44.6266 83.0355Z" fill="white"/>
<path id="Vector_23" d="M55.6788 82.6311H59.6588V80.7972H55.6788V75.9517H61.0741V74.1143H53.5859V89.9987H61.3295V88.1648H55.6788V82.6311Z" fill="white"/>
<path id="Vector_24" d="M67.579 74.1143H64.5V89.9987H67.579C71.339 89.9987 73.0133 87.5476 73.0133 82.0565C73.0133 76.5654 71.339 74.1143 67.579 74.1143ZM66.5893 75.9517H67.2775C69.5867 75.9517 70.9205 76.952 70.9205 82.06C70.9205 87.168 69.5832 88.1683 67.2775 88.1683H66.5893V75.9553V75.9517Z" fill="white"/>
<path id="Vector_25" d="M78.2647 74.1143H76.1719V89.9987H78.2647V74.1143Z" fill="white"/>
<path id="Vector_26" d="M83.9054 82.6311H87.8853V80.7972H83.9054V75.9517H89.3007V74.1143H81.8125V89.9987H89.5561V88.1648H83.9054V82.6311Z" fill="white"/>
</g>
</g>
<defs>
<clipPath id="clip0_3147_3466">
<rect width="100.553" height="90" fill="white" transform="translate(0.910156)"/>
</clipPath>
</defs>
</svg>
